<mxfile host="app.diagrams.net" modified="2023-10-22T02:05:07.929Z" agent="Mozilla/5.0 (Windows NT 10.0; Win64; x64; rv:109.0) Gecko/20100101 Firefox/118.0" etag="iz2Vh6KnEH4KtfmoyW7w" version="22.0.6" type="google">
  <diagram name="Page-1" id="sZGe2gvZaEUPUq1Hl3j6">
    <mxGraphModel grid="1" page="1" gridSize="10" guides="1" tooltips="1" connect="1" arrows="1" fold="1" pageScale="1" pageWidth="827" pageHeight="1169" math="0" shadow="0">
      <root>
        <mxCell id="0" />
        <mxCell id="1" parent="0" />
        <mxCell id="lWQwpQHPoPF3Br3Qdk7Y-3" value="API" style="whiteSpace=wrap;html=1;aspect=fixed;" vertex="1" parent="1">
          <mxGeometry x="560" y="110" width="80" height="80" as="geometry" />
        </mxCell>
        <mxCell id="lWQwpQHPoPF3Br3Qdk7Y-5" value="Recycler View (UI)" style="swimlane;" vertex="1" parent="1">
          <mxGeometry x="312.5" y="560" width="207.5" height="190" as="geometry" />
        </mxCell>
        <mxCell id="lWQwpQHPoPF3Br3Qdk7Y-7" value="&lt;div&gt;Items&lt;/div&gt;" style="swimlane;fontStyle=0;childLayout=stackLayout;horizontal=1;startSize=30;horizontalStack=0;resizeParent=1;resizeParentMax=0;resizeLast=0;collapsible=1;marginBottom=0;whiteSpace=wrap;html=1;" vertex="1" parent="lWQwpQHPoPF3Br3Qdk7Y-5">
          <mxGeometry x="10" y="40" width="170" height="120" as="geometry" />
        </mxCell>
        <mxCell id="lWQwpQHPoPF3Br3Qdk7Y-8" value="Apple&lt;span style=&quot;white-space: pre;&quot;&gt;&#x9;&lt;/span&gt;" style="text;strokeColor=none;fillColor=none;align=left;verticalAlign=middle;spacingLeft=4;spacingRight=4;overflow=hidden;points=[[0,0.5],[1,0.5]];portConstraint=eastwest;rotatable=0;whiteSpace=wrap;html=1;" vertex="1" parent="lWQwpQHPoPF3Br3Qdk7Y-7">
          <mxGeometry y="30" width="170" height="30" as="geometry" />
        </mxCell>
        <mxCell id="lWQwpQHPoPF3Br3Qdk7Y-9" value="&lt;div&gt;Banana&lt;/div&gt;" style="text;strokeColor=none;fillColor=none;align=left;verticalAlign=middle;spacingLeft=4;spacingRight=4;overflow=hidden;points=[[0,0.5],[1,0.5]];portConstraint=eastwest;rotatable=0;whiteSpace=wrap;html=1;" vertex="1" parent="lWQwpQHPoPF3Br3Qdk7Y-7">
          <mxGeometry y="60" width="170" height="30" as="geometry" />
        </mxCell>
        <mxCell id="lWQwpQHPoPF3Br3Qdk7Y-10" value="Waffle" style="text;strokeColor=none;fillColor=none;align=left;verticalAlign=middle;spacingLeft=4;spacingRight=4;overflow=hidden;points=[[0,0.5],[1,0.5]];portConstraint=eastwest;rotatable=0;whiteSpace=wrap;html=1;" vertex="1" parent="lWQwpQHPoPF3Br3Qdk7Y-7">
          <mxGeometry y="90" width="170" height="30" as="geometry" />
        </mxCell>
        <mxCell id="lWQwpQHPoPF3Br3Qdk7Y-12" value="&lt;div&gt;Create List&lt;/div&gt;" style="shape=cylinder3;whiteSpace=wrap;html=1;boundedLbl=1;backgroundOutline=1;size=15;" vertex="1" parent="1">
          <mxGeometry x="330" y="335" width="110" height="120" as="geometry" />
        </mxCell>
        <mxCell id="lWQwpQHPoPF3Br3Qdk7Y-17" value="Item Adapter" style="whiteSpace=wrap;html=1;aspect=fixed;" vertex="1" parent="1">
          <mxGeometry x="90" y="330" width="130" height="130" as="geometry" />
        </mxCell>
        <mxCell id="lWQwpQHPoPF3Br3Qdk7Y-19" value="" style="endArrow=classic;startArrow=classic;html=1;rounded=0;entryX=0.5;entryY=1;entryDx=0;entryDy=0;exitX=0;exitY=0.5;exitDx=0;exitDy=0;" edge="1" parent="1" source="lWQwpQHPoPF3Br3Qdk7Y-8" target="lWQwpQHPoPF3Br3Qdk7Y-17">
          <mxGeometry width="50" height="50" relative="1" as="geometry">
            <mxPoint x="140" y="510" as="sourcePoint" />
            <mxPoint x="190" y="460" as="targetPoint" />
          </mxGeometry>
        </mxCell>
        <mxCell id="lWQwpQHPoPF3Br3Qdk7Y-20" value="" style="endArrow=classic;startArrow=classic;html=1;rounded=0;entryX=0.5;entryY=1;entryDx=0;entryDy=0;exitX=0;exitY=0.5;exitDx=0;exitDy=0;" edge="1" parent="1" source="lWQwpQHPoPF3Br3Qdk7Y-9" target="lWQwpQHPoPF3Br3Qdk7Y-17">
          <mxGeometry width="50" height="50" relative="1" as="geometry">
            <mxPoint x="120" y="580" as="sourcePoint" />
            <mxPoint x="170" y="530" as="targetPoint" />
          </mxGeometry>
        </mxCell>
        <mxCell id="lWQwpQHPoPF3Br3Qdk7Y-21" value="" style="endArrow=classic;startArrow=classic;html=1;rounded=0;entryX=0.5;entryY=1;entryDx=0;entryDy=0;exitX=0;exitY=0.5;exitDx=0;exitDy=0;" edge="1" parent="1" source="lWQwpQHPoPF3Br3Qdk7Y-10" target="lWQwpQHPoPF3Br3Qdk7Y-17">
          <mxGeometry width="50" height="50" relative="1" as="geometry">
            <mxPoint x="100" y="580" as="sourcePoint" />
            <mxPoint x="150" y="530" as="targetPoint" />
          </mxGeometry>
        </mxCell>
        <mxCell id="lWQwpQHPoPF3Br3Qdk7Y-22" value="" style="endArrow=classic;startArrow=classic;html=1;rounded=0;entryX=0;entryY=0.5;entryDx=0;entryDy=0;entryPerimeter=0;exitX=1;exitY=0.5;exitDx=0;exitDy=0;" edge="1" parent="1" source="lWQwpQHPoPF3Br3Qdk7Y-17" target="lWQwpQHPoPF3Br3Qdk7Y-12">
          <mxGeometry width="50" height="50" relative="1" as="geometry">
            <mxPoint x="240" y="440" as="sourcePoint" />
            <mxPoint x="290" y="390" as="targetPoint" />
          </mxGeometry>
        </mxCell>
        <mxCell id="lWQwpQHPoPF3Br3Qdk7Y-23" value="" style="endArrow=classic;startArrow=classic;html=1;rounded=0;exitX=0;exitY=0.5;exitDx=0;exitDy=0;" edge="1" parent="1" source="lWQwpQHPoPF3Br3Qdk7Y-24" target="lWQwpQHPoPF3Br3Qdk7Y-3">
          <mxGeometry width="50" height="50" relative="1" as="geometry">
            <mxPoint x="110" y="230" as="sourcePoint" />
            <mxPoint x="180" y="219.58" as="targetPoint" />
          </mxGeometry>
        </mxCell>
        <mxCell id="lWQwpQHPoPF3Br3Qdk7Y-24" value="DB" style="shape=datastore;whiteSpace=wrap;html=1;" vertex="1" parent="1">
          <mxGeometry x="730" y="120" width="60" height="60" as="geometry" />
        </mxCell>
        <mxCell id="lWQwpQHPoPF3Br3Qdk7Y-26" value="&lt;div&gt;Create List &lt;br&gt;&lt;/div&gt;&lt;div&gt;View Model&lt;/div&gt;" style="whiteSpace=wrap;html=1;aspect=fixed;" vertex="1" parent="1">
          <mxGeometry x="547.5" y="342.5" width="105" height="105" as="geometry" />
        </mxCell>
        <mxCell id="lWQwpQHPoPF3Br3Qdk7Y-27" value="" style="endArrow=classic;startArrow=classic;html=1;rounded=0;entryX=0.5;entryY=1;entryDx=0;entryDy=0;exitX=0.5;exitY=0;exitDx=0;exitDy=0;" edge="1" parent="1" source="lWQwpQHPoPF3Br3Qdk7Y-26" target="lWQwpQHPoPF3Br3Qdk7Y-3">
          <mxGeometry width="50" height="50" relative="1" as="geometry">
            <mxPoint x="540" y="290" as="sourcePoint" />
            <mxPoint x="590" y="240" as="targetPoint" />
          </mxGeometry>
        </mxCell>
        <mxCell id="lWQwpQHPoPF3Br3Qdk7Y-28" value="" style="endArrow=classic;startArrow=classic;html=1;rounded=0;exitX=0;exitY=0.5;exitDx=0;exitDy=0;" edge="1" parent="1" source="lWQwpQHPoPF3Br3Qdk7Y-26">
          <mxGeometry width="50" height="50" relative="1" as="geometry">
            <mxPoint x="510" y="394.58000000000004" as="sourcePoint" />
            <mxPoint x="440" y="394.58000000000004" as="targetPoint" />
          </mxGeometry>
        </mxCell>
        <mxCell id="lWQwpQHPoPF3Br3Qdk7Y-32" value="&lt;div align=&quot;left&quot;&gt;{&quot;items: &lt;br&gt;&lt;/div&gt;&lt;div align=&quot;left&quot;&gt;&amp;nbsp;&amp;nbsp;&amp;nbsp; {&quot;apple&quot;:0.34},&lt;/div&gt;&lt;div align=&quot;left&quot;&gt;&amp;nbsp;&amp;nbsp;&amp;nbsp; {&quot;banana&quot;:0.61}, &lt;br&gt;&lt;/div&gt;&lt;div align=&quot;left&quot;&gt;&amp;nbsp;&amp;nbsp;&amp;nbsp;&amp;nbsp;&amp;nbsp;&amp;nbsp; ...&lt;/div&gt;&lt;div align=&quot;left&quot;&gt;}&lt;br&gt;&lt;/div&gt;" style="shape=note;whiteSpace=wrap;html=1;backgroundOutline=1;darkOpacity=0.05;align=left;" vertex="1" parent="1">
          <mxGeometry x="640" y="270" width="110" height="100" as="geometry" />
        </mxCell>
        <mxCell id="lWQwpQHPoPF3Br3Qdk7Y-33" value="&lt;font style=&quot;font-size: 11px;&quot;&gt;val items: item = listOf()&lt;/font&gt;" style="rounded=1;whiteSpace=wrap;html=1;fontSize=9;" vertex="1" parent="1">
          <mxGeometry x="370" y="310" width="140" height="32.5" as="geometry" />
        </mxCell>
        <mxCell id="lWQwpQHPoPF3Br3Qdk7Y-37" value="&lt;div style=&quot;font-size: 11px;&quot;&gt;&lt;font style=&quot;font-size: 10px;&quot;&gt;@id_apple&lt;/font&gt;&lt;/div&gt;" style="text;strokeColor=none;fillColor=none;align=left;verticalAlign=middle;spacingLeft=4;spacingRight=4;overflow=hidden;points=[[0,0.5],[1,0.5]];portConstraint=eastwest;rotatable=0;whiteSpace=wrap;html=1;" vertex="1" parent="1">
          <mxGeometry x="90" y="350" width="80" height="20" as="geometry" />
        </mxCell>
        <mxCell id="lWQwpQHPoPF3Br3Qdk7Y-38" value="&lt;font style=&quot;font-size: 10px;&quot;&gt;@id_waffle&lt;/font&gt;" style="text;strokeColor=none;fillColor=none;align=left;verticalAlign=middle;spacingLeft=4;spacingRight=4;overflow=hidden;points=[[0,0.5],[1,0.5]];portConstraint=eastwest;rotatable=0;whiteSpace=wrap;html=1;" vertex="1" parent="1">
          <mxGeometry x="90" y="370" width="80" height="20" as="geometry" />
        </mxCell>
        <mxCell id="lWQwpQHPoPF3Br3Qdk7Y-39" value="&lt;div style=&quot;font-size: 11px;&quot;&gt;&lt;font style=&quot;font-size: 11px;&quot;&gt;@id_banana&lt;/font&gt;&lt;/div&gt;&lt;div style=&quot;font-size: 11px;&quot;&gt;&lt;font style=&quot;font-size: 11px;&quot;&gt;&lt;br&gt;&lt;/font&gt;&lt;/div&gt;" style="text;strokeColor=none;fillColor=none;align=left;verticalAlign=middle;spacingLeft=4;spacingRight=4;overflow=hidden;points=[[0,0.5],[1,0.5]];portConstraint=eastwest;rotatable=0;whiteSpace=wrap;html=1;" vertex="1" parent="1">
          <mxGeometry x="90" y="332.5" width="80" height="17.5" as="geometry" />
        </mxCell>
        <mxCell id="lWQwpQHPoPF3Br3Qdk7Y-6" value="" style="shape=actor;whiteSpace=wrap;html=1;" vertex="1" parent="1">
          <mxGeometry x="500" y="700" width="53.75" height="80" as="geometry" />
        </mxCell>
      </root>
    </mxGraphModel>
  </diagram>
</mxfile>
